<?xml version="1.0" encoding="UTF-8" standalone="no"?>
<svg
   xmlns:dc="http://purl.org/dc/elements/1.1/"
   xmlns:cc="http://creativecommons.org/ns#"
   xmlns:rdf="http://www.w3.org/1999/02/22-rdf-syntax-ns#"
   xmlns:svg="http://www.w3.org/2000/svg"
   xmlns="http://www.w3.org/2000/svg"
   xmlns:xlink="http://www.w3.org/1999/xlink"
   version="1.1"
   height="70pt"
   width="280pt"
   id="svg548">
  <metadata
     id="metadata36">
    <rdf:RDF>
      <cc:Work
         rdf:about="">
        <dc:format>image/svg+xml</dc:format>
        <dc:type
           rdf:resource="http://purl.org/dc/dcmitype/StillImage" />
        <dc:title></dc:title>
      </cc:Work>
    </rdf:RDF>
  </metadata>
  <defs
     id="defs550">
    <linearGradient
       id="linearGradient685">
      <stop
         id="stop686"
         offset="0.000000"
         style="stop-color:#101015;stop-opacity:0.960784;" />
      <stop
         id="stop687"
         offset="1.000000"
         style="stop-color:#c5c5c5;stop-opacity:0;" />
    </linearGradient>
    <linearGradient
       id="linearGradient642">
      <stop
         id="stop643"
         offset="0.000000"
         style="stop-color:#000000;stop-opacity:0.478431;" />
      <stop
         id="stop644"
         offset="1.000000"
         style="stop-color:#000a00;stop-opacity:0.403922;" />
    </linearGradient>
    <linearGradient
       id="linearGradient638">
      <stop
         id="stop639"
         offset="0.000000"
         style="stop-color:#0f1015;stop-opacity:0.247059;" />
      <stop
         id="stop640"
         offset="1.000000"
         style="stop-color:#c5c5c5;stop-opacity:0;" />
    </linearGradient>
    <linearGradient
       id="linearGradient568">
      <stop
         id="stop569"
         offset="0.000000"
         style="stop-color:#1010ff;stop-opacity:1;" />
      <stop
         id="stop570"
         offset="1.000000"
         style="stop-color:#00004a;stop-opacity:1;" />
    </linearGradient>
    <linearGradient
       id="linearGradient561">
      <stop
         id="stop562"
         offset="0.000000"
         style="stop-color:#ffffff;stop-opacity:0.572549;" />
      <stop
         id="stop563"
         offset="1.000000"
         style="stop-color:#ffffff;stop-opacity:0;" />
    </linearGradient>
    <linearGradient
       spreadMethod="pad"
       gradientUnits="userSpaceOnUse"
       y2="88.1060104"
       x2="389.396515"
       y1="88.1059952"
       x1="255.619919"
       id="linearGradient564"
       xlink:href="#linearGradient568" />
    <linearGradient
       spreadMethod="pad"
       gradientUnits="userSpaceOnUse"
       y2="-117.924515"
       x2="221.520035"
       y1="178.143234"
       x1="224.143097"
       id="linearGradient565"
       xlink:href="#linearGradient638" />
    <radialGradient
       id="radialGradient566"
       xlink:href="#linearGradient642" />
    <radialGradient
       spreadMethod="pad"
       gradientUnits="userSpaceOnUse"
       r="273.477722"
       fy="171.762436"
       fx="222.831543"
       cy="171.762436"
       cx="222.831543"
       id="radialGradient567"
       xlink:href="#linearGradient638" />
    <linearGradient
       spreadMethod="pad"
       gradientUnits="userSpaceOnUse"
       y2="-139.619095"
       x2="218.896942"
       y1="160.277054"
       x1="212.339264"
       id="linearGradient571"
       xlink:href="#linearGradient685" />
    <linearGradient
       id="linearGradient637"
       xlink:href="#linearGradient638" />
    <radialGradient
       id="radialGradient641"
       xlink:href="#linearGradient642" />
    <linearGradient
       spreadMethod="pad"
       gradientTransform="scale(0.469136,2.131578)"
       gradientUnits="objectBoundingBox"
       y2="-1.11934209"
       x2="1.15037549"
       y1="0.79012376"
       x1="1.16729271"
       id="linearGradient649"
       xlink:href="#linearGradient642" />
    <linearGradient
       id="linearGradient650"
       xlink:href="#linearGradient642" />
    <linearGradient
       id="linearGradient1673"
       xlink:href="#linearGradient642" />
  </defs>
  <g
     transform="translate(-32.15051,-47.33437)"
     style="font-size:12;stroke:none;stroke-width:2.5;stroke-linecap:round;stroke-linejoin:round;"
     id="g669">
    <g
       id="text689"
       style="font-style:normal;font-weight:bold;font-size:72px;font-family:'Copperplate Gothic Bold';writing-mode:lr-tb;text-anchor:start;fill:#000000;fill-opacity:1;stroke:none;stroke-width:2.5;stroke-linecap:round;stroke-linejoin:round;stroke-dasharray:none;stroke-opacity:1"
       transform="matrix(1.000000,0.000000,-0.160000,1.000000,0.000000,0.000000)">
      <g
         id="g4184">
        <g
           style="font-size:72px;stroke:none;stroke-width:2.5;stroke-linecap:round;stroke-linejoin:round;font-style:normal;font-weight:bold;font-family:'Copperplate Gothic Bold';writing-mode:lr-tb;text-anchor:start;fill:#000000;fill-opacity:1;stroke-dasharray:none;stroke-opacity:1"
           id="text685">
          <path
             d="m 257.31764,68.501221 -5.73047,11.285156 -0.98437,-0.5625 q 0.0351,-0.351563 0.0351,-0.5625 0,-1.195313 -2.03906,-2.566406 -6.25781,-4.359375 -14.69531,-4.359375 -3.72656,0 -6.57422,0.914062 -2.07422,0.703125 -3.375,2.109375 -1.26562,1.40625 -1.26562,3.058594 0,2.707031 3.26953,3.691406 1.6875,0.492188 7.24218,1.054688 l 5.51954,0.5625 q 4.92187,0.527343 7.94531,1.441406 3.05859,0.914062 5.41406,2.566406 2.39063,1.722656 3.76172,4.535156 1.40625,2.8125 1.40625,6.011719 0,5.062502 -3.26953,9.000002 -2.95313,3.58594 -9.17578,5.30859 -4.64063,1.30078 -9.94922,1.30078 -9.52735,0 -18.8086,-4.57031 -1.96875,-0.91406 -2.35546,-0.91406 -0.45704,0 -1.44141,0.77344 l -1.01953,-0.52735 5.20312,-11.777342 1.01953,0.492188 q 0,0.316406 0,0.457031 0,1.582031 1.51172,2.917973 2.28516,2.03906 7.06641,3.51562 4.78125,1.47656 9.07031,1.47656 4.67578,0 7.98047,-1.58203 1.82813,-0.8789 2.91797,-2.32031 1.08984,-1.476563 1.08984,-3.058594 0,-2.390625 -2.5664,-3.410157 -1.79297,-0.703125 -7.24219,-1.300781 l -5.41406,-0.5625 q -5.44922,-0.5625 -7.69922,-1.054687 -2.25,-0.527344 -4.5,-1.652344 -3.19922,-1.582031 -5.02735,-4.746094 -1.65234,-2.847656 -1.65234,-6.539062 0,-6.082032 4.18359,-10.054688 5.48438,-5.238281 16.45313,-5.238281 4.60547,0 8.57812,0.949219 3.97266,0.914062 9.91407,3.410156 2.03906,0.808594 2.49609,0.808594 0.73828,0 1.72266,-0.808594 l 0.98437,0.527344 z"
             style="fill:#ffffff;fill-opacity:1;stroke:none;stroke-width:2.5;stroke-linecap:round;stroke-linejoin:round;stroke-dasharray:none;stroke-opacity:1"
             id="path4170" />
          <path
             d="m 309.20827,68.501221 -5.73047,11.285156 -0.98438,-0.5625 q 0.0352,-0.351563 0.0352,-0.5625 0,-1.195313 -2.03906,-2.566406 -6.25782,-4.359375 -14.69532,-4.359375 -3.72656,0 -6.57421,0.914062 -2.07422,0.703125 -3.375,2.109375 -1.26563,1.40625 -1.26563,3.058594 0,2.707031 3.26953,3.691406 1.6875,0.492188 7.24219,1.054688 l 5.51953,0.5625 q 4.92188,0.527343 7.94531,1.441406 3.0586,0.914062 5.41407,2.566406 2.39062,1.722656 3.76171,4.535156 1.40625,2.8125 1.40625,6.011719 0,5.062502 -3.26953,9.000002 -2.95312,3.58594 -9.17578,5.30859 -4.64062,1.30078 -9.94922,1.30078 -9.52734,0 -18.80859,-4.57031 -1.96875,-0.91406 -2.35547,-0.91406 -0.45703,0 -1.44141,0.77344 l -1.01953,-0.52735 5.20313,-11.777342 1.01953,0.492188 q 0,0.316406 0,0.457031 0,1.582031 1.51172,2.917973 2.28515,2.03906 7.0664,3.51562 4.78125,1.47656 9.07032,1.47656 4.67578,0 7.98047,-1.58203 1.82812,-0.8789 2.91796,-2.32031 1.08985,-1.476563 1.08985,-3.058594 0,-2.390625 -2.56641,-3.410157 -1.79297,-0.703125 -7.24219,-1.300781 l -5.41406,-0.5625 q -5.44922,-0.5625 -7.69922,-1.054687 -2.25,-0.527344 -4.5,-1.652344 -3.19922,-1.582031 -5.02734,-4.746094 -1.65234,-2.847656 -1.65234,-6.539062 0,-6.082032 4.18359,-10.054688 5.48437,-5.238281 16.45312,-5.238281 4.60547,0 8.57813,0.949219 3.97266,0.914062 9.91406,3.410156 2.03906,0.808594 2.4961,0.808594 0.73828,0 1.72265,-0.808594 l 0.98438,0.527344 z"
             style="fill:#ffffff;fill-opacity:1;stroke:none;stroke-width:2.5;stroke-linecap:round;stroke-linejoin:round;stroke-dasharray:none;stroke-opacity:1"
             id="path4172" />
          <path
             d="m 318.70045,108.75513 0,-40.640628 q 0,-1.054688 -0.49218,-1.617188 -0.49219,-0.5625 -1.75782,-0.914062 l 0,-1.125 14.97657,0 0,1.125 q -1.26563,0.316406 -1.75782,0.914062 -0.49218,0.5625 -0.49218,1.617188 l 0,40.640628 q 0,1.08984 0.49218,1.6875 0.52735,0.5625 1.75782,0.8789 l 0,1.125 -14.97657,0 0,-1.125 q 1.26563,-0.35156 1.75782,-0.91406 0.49218,-0.5625 0.49218,-1.65234 z"
             style="fill:#ffffff;fill-opacity:1;stroke:none;stroke-width:2.5;stroke-linecap:round;stroke-linejoin:round;stroke-dasharray:none;stroke-opacity:1"
             id="path4174" />
          <path
             d="m 384.72389,68.501221 -5.73047,11.285156 -0.98437,-0.5625 q 0.0351,-0.351563 0.0351,-0.5625 0,-1.195313 -2.03906,-2.566406 -6.25781,-4.359375 -14.69531,-4.359375 -3.72656,0 -6.57422,0.914062 -2.07422,0.703125 -3.375,2.109375 -1.26562,1.40625 -1.26562,3.058594 0,2.707031 3.26953,3.691406 1.6875,0.492188 7.24218,1.054688 l 5.51954,0.5625 q 4.92187,0.527343 7.94531,1.441406 3.05859,0.914062 5.41406,2.566406 2.39063,1.722656 3.76172,4.535156 1.40625,2.8125 1.40625,6.011719 0,5.062502 -3.26953,9.000002 -2.95313,3.58594 -9.17578,5.30859 -4.64063,1.30078 -9.94922,1.30078 -9.52735,0 -18.8086,-4.57031 -1.96875,-0.91406 -2.35546,-0.91406 -0.45704,0 -1.44141,0.77344 l -1.01953,-0.52735 5.20312,-11.777342 1.01953,0.492188 q 0,0.316406 0,0.457031 0,1.582031 1.51172,2.917973 2.28516,2.03906 7.06641,3.51562 4.78125,1.47656 9.07031,1.47656 4.67578,0 7.98047,-1.58203 1.82813,-0.8789 2.91797,-2.32031 1.08984,-1.476563 1.08984,-3.058594 0,-2.390625 -2.5664,-3.410157 -1.79297,-0.703125 -7.24219,-1.300781 l -5.41406,-0.5625 q -5.44922,-0.5625 -7.69922,-1.054687 -2.25,-0.527344 -4.5,-1.652344 -3.19922,-1.582031 -5.02735,-4.746094 -1.65234,-2.847656 -1.65234,-6.539062 0,-6.082032 4.18359,-10.054688 5.48438,-5.238281 16.45313,-5.238281 4.60547,0 8.57812,0.949219 3.97266,0.914062 9.91407,3.410156 2.03906,0.808594 2.49609,0.808594 0.73828,0 1.72266,-0.808594 l 0.98437,0.527344 z"
             style="fill:#ffffff;fill-opacity:1;stroke:none;stroke-width:2.5;stroke-linecap:round;stroke-linejoin:round;stroke-dasharray:none;stroke-opacity:1"
             id="path4176" />
        </g>
        <path
           transform="matrix(1.270147,0,-0.04677648,1.270147,-17.06069,65.08644)"
           style="font-size:72;stroke:none;stroke-width:2.5;stroke-linecap:round;stroke-linejoin:round;font-weight:normal;fill:#ffffff;font-family:Wingdings;fill-opacity:1;stroke-opacity:1;stroke-dasharray:none"
           d="M 168.738 42.9357 L 168.738 48.0333 C 165.715 49.2286 162.996 49.8263 160.582 49.8263 C 157.535 49.8263 154.781 49.2286 152.32 48.0333 L 152.32 44.0958 C 151.5 43.2052 150.574 42.1622 149.543 40.9669 C 148.16 37.6153 147.469 34.0997 147.469 30.42 L 147.469 28.7325 C 147.141 27.7482 146.977 26.9513 146.977 26.3419 C 146.977 25.2638 147.199 24.4669 147.645 23.9513 C 148.113 23.4122 148.793 23.1427 149.684 23.1427 C 150.012 23.1427 150.551 23.2482 151.301 23.4591 C 151.02 22.4747 150.879 21.713 150.879 21.1739 C 150.879 19.8849 151.184 18.9239 151.793 18.2911 C 152.426 17.6583 153.352 17.3419 154.57 17.3419 C 155.648 17.3419 156.668 17.9747 157.629 19.2403 C 157.605 18.6544 157.594 18.1857 157.594 17.8341 C 157.594 17.5294 157.605 17.1427 157.629 16.6739 L 153.656 1.87316 C 152.859 -1.05653 152.461 -2.93153 152.461 -3.75184 C 152.461 -4.99403 152.789 -5.91981 153.445 -6.52919 C 154.102 -7.13856 155.074 -7.44325 156.363 -7.44325 C 158.379 -7.44325 159.879 -5.39247 160.863 -1.29091 L 164.766 14.7052 L 168.738 2.57628 C 170.262 -2.06434 171.973 -4.38466 173.871 -4.38466 C 174.785 -4.38466 175.559 -4.06825 176.191 -3.43544 C 176.848 -2.80263 177.176 -2.02919 177.176 -1.11513 C 177.176 -0.154188 176.777 1.82628 175.98 4.82628 L 172.465 18.2208 C 172.652 19.8614 172.746 22.1817 172.746 25.1817 L 172.781 26.6935 C 173.508 28.7091 173.941 30.5138 174.082 32.1075 C 172.934 35.4591 171.152 39.0685 168.738 42.9357 z M 163.289 15.7599 L 159.141 -1.15028 C 158.391 -4.26747 157.418 -5.82606 156.223 -5.82606 C 155.543 -5.82606 155.027 -5.65028 154.676 -5.29872 C 154.348 -4.94716 154.184 -4.41981 154.184 -3.71669 C 154.184 -3.31825 154.277 -2.76747 154.465 -2.06434 C 154.535 -1.78309 154.629 -1.39638 154.746 -0.904188 C 154.91 -0.2245 155.039 0.279406 155.133 0.607531 L 159.492 16.9903 L 167.367 18.1153 C 168.844 19.7794 170.039 21.5138 170.953 23.3185 L 170.953 17.7638 L 174.363 4.26378 C 175.066 1.52159 175.418 -0.283094 175.418 -1.15028 C 175.418 -1.66591 175.289 -2.04091 175.031 -2.27528 C 174.773 -2.53309 174.375 -2.662 173.836 -2.662 C 173.18 -2.662 172.664 -2.36903 172.289 -1.78309 C 171.937 -1.19716 171.363 0.291125 170.566 2.68175 L 166.031 16.0411 L 163.289 15.7599 z M 167.156 42.2325 C 168.867 39.795 170.426 36.7716 171.832 33.1622 C 171.949 32.8575 172.125 32.4239 172.359 31.8614 C 172.195 31.2755 172.078 30.8419 172.008 30.5607 C 171 26.6466 169.172 23.0138 166.523 19.6622 L 159.387 18.713 C 159.387 21.9942 161.461 23.7403 165.609 23.9513 C 165.562 24.7247 165.539 25.3575 165.539 25.8497 C 165.539 27.3497 165.703 29.0021 166.031 30.8067 L 164.344 30.8067 C 163.992 29.3771 163.816 27.9122 163.816 26.4122 L 163.816 25.6739 C 162.176 25.3458 160.805 24.7716 159.703 23.9513 L 161.074 27.3263 C 161.52 28.4747 161.742 29.4005 161.742 30.1036 C 161.742 31.3927 161.449 32.3653 160.863 33.0216 C 160.277 33.6544 159.387 33.9708 158.191 33.9708 C 157.582 33.9708 156.867 33.713 156.047 33.1974 C 155.906 34.2755 155.578 35.0841 155.062 35.6232 C 154.547 36.1622 153.855 36.4317 152.988 36.4317 C 151.91 36.4317 150.973 35.7755 150.176 34.463 L 149.402 33.1974 C 149.707 35.4708 150.105 37.4513 150.598 39.1388 C 150.668 39.3497 150.762 39.6427 150.879 40.0177 L 154.113 43.7091 L 154.113 46.838 C 156.48 47.6349 158.707 48.0333 160.793 48.0333 C 162.855 48.0333 164.977 47.6349 167.156 46.838 L 167.156 42.2325 z M 158.473 25.7091 L 157.031 22.1232 C 156.211 20.0607 155.367 19.0294 154.5 19.0294 C 153.891 19.0294 153.422 19.2169 153.094 19.5919 C 152.789 19.9435 152.637 20.4825 152.637 21.2091 C 152.637 22.17 152.918 23.3185 153.48 24.6544 L 154.852 27.9942 C 156.023 30.7833 157.16 32.1778 158.262 32.1778 C 158.848 32.1778 159.281 32.0255 159.562 31.7208 C 159.867 31.3927 160.02 30.9239 160.02 30.3146 C 160.02 29.588 159.504 28.0528 158.473 25.7091 z M 153.516 29.1896 L 152.602 27.0802 C 151.945 25.5333 151.172 24.7599 150.281 24.7599 C 149.766 24.7599 149.367 24.8888 149.086 25.1466 C 148.828 25.4044 148.699 25.8028 148.699 26.3419 C 148.699 26.7872 148.969 27.6544 149.508 28.9435 L 150.844 32.1075 C 151.547 33.7716 152.332 34.6036 153.199 34.6036 C 153.691 34.6036 154.055 34.4513 154.289 34.1466 C 154.547 33.8419 154.676 33.3966 154.676 32.8107 C 154.676 32.0607 154.289 30.8536 153.516 29.1896 z "
           id="path673" />
        <path
           d="m 106.12993,67.024658 0,26.894531 q 0,7.628911 -2.8125,11.425781 -5.062501,6.82031 -20.91797,6.82031 -11.460938,0 -17.542969,-3.6914 -3.550781,-2.14453 -4.921875,-5.83594 -1.335937,-3.656251 -1.335937,-8.718751 l 0,-26.894531 q 0,-1.089844 -0.492188,-1.652344 -0.492187,-0.5625 -1.757812,-0.914062 l 0,-1.125 15.011718,0 0,1.125 q -1.265625,0.316406 -1.792968,0.914062 -0.492188,0.5625 -0.492188,1.652344 l 0,23.941406 q 0,4.148438 0.457031,6.152344 0.457032,1.96875 1.722657,3.304692 3.375,3.58593 11.53125,3.58593 8.191406,0 11.566406,-3.58593 1.230469,-1.335942 1.6875,-3.304692 0.457031,-2.003906 0.457031,-6.152344 l 0,-23.941406 q 0,-1.089844 -0.492187,-1.652344 -0.492188,-0.5625 -1.757813,-0.914062 l 0,-1.125 14.132814,0 0,1.125 q -1.26563,0.351562 -1.75781,0.914062 -0.49219,0.5625 -0.49219,1.652344 z"
           style="fill:#ffffff;fill-opacity:1;stroke:none;stroke-width:2.5;stroke-linecap:round;stroke-linejoin:round;stroke-dasharray:none;stroke-opacity:1"
           id="path4165" />
        <path
           d="m 128.80571,103.41138 29.49609,0 q 1.08985,0 1.65235,-0.49219 0.5625,-0.49219 0.91406,-1.75781 l 1.125,0 0,12.41015 -1.125,0 q -0.35156,-1.26562 -0.91406,-1.75781 -0.5625,-0.49219 -1.65235,-0.49219 l -42.22265,0 0,-1.125 q 1.26562,-0.35156 1.75781,-0.91406 0.49219,-0.5625 0.49219,-1.65234 l 0,-40.605472 q 0,-1.089844 -0.49219,-1.652344 -0.49219,-0.5625 -1.75781,-0.914062 l 0,-1.125 14.97656,0 0,1.125 q -1.26563,0.316406 -1.75781,0.914062 -0.49219,0.5625 -0.49219,1.652344 l 0,36.386722 z"
           style="fill:#ffffff;fill-opacity:1;stroke:none;stroke-width:2.5;stroke-linecap:round;stroke-linejoin:round;stroke-dasharray:none;stroke-opacity:1"
           id="path4167" />
      </g>
    </g>
  </g>
</svg>
